RobotoDelta-XTRAmax-old.ufo
<glyph name="six" format="1">
  <advance width="1410"/>
  <unicode hex="0036"/>
  <outline>
    <contour>
      <point x="84" y="636" type="line" smooth="yes"/>
      <point x="84" y="279"/>
      <point x="459" y="-40"/>
      <point x="743" y="-40" type="qcurve" smooth="yes"/>
      <point x="1010" y="-40"/>
      <point x="1351" y="261"/>
      <point x="1351" y="475" type="qcurve" smooth="yes"/>
      <point x="1351" y="679"/>
      <point x="1050" y="966"/>
      <point x="783" y="966" type="qcurve" smooth="yes"/>
      <point x="575" y="966"/>
      <point x="299" y="798"/>
      <point x="261" y="744" type="qcurve"/>
      <point x="258" y="532" type="line"/>
      <point x="316" y="635"/>
      <point x="588" y="812"/>
      <point x="771" y="812" type="qcurve" smooth="yes"/>
      <point x="942" y="812"/>
      <point x="1167" y="629"/>
      <point x="1167" y="466" type="qcurve" smooth="yes"/>
      <point x="1167" y="303"/>
      <point x="951" y="112"/>
      <point x="737" y="112" type="qcurve" smooth="yes"/>
      <point x="518" y="112"/>
      <point x="269" y="357"/>
      <point x="269" y="628" type="qcurve" smooth="yes"/>
      <point x="269" y="642" type="line" smooth="yes"/>
      <point x="269" y="995"/>
      <point x="727" y="1351"/>
      <point x="1106" y="1351" type="qcurve" smooth="yes"/>
      <point x="1117" y="1351" type="line"/>
      <point x="1117" y="1508" type="line"/>
      <point x="1094" y="1508" type="line" smooth="yes"/>
      <point x="625" y="1508"/>
      <point x="84" y="1045"/>
      <point x="84" y="648" type="qcurve" smooth="yes"/>
    </contour>
  </outline>
</glyph>
<glyph name="Z" format="1">
  <advance width="1396"/>
  <unicode hex="005A"/>
  <outline>
    <contour>
      <point x="36" y="0" type="line"/>
      <point x="1360" y="0" type="line"/>
      <point x="1360" y="158" type="line"/>
      <point x="292" y="158" type="line"/>
      <point x="1320" y="1316" type="line"/>
      <point x="1320" y="1456" type="line"/>
      <point x="51" y="1456" type="line"/>
      <point x="51" y="1298" type="line"/>
      <point x="1064" y="1298" type="line"/>
      <point x="36" y="140" type="line"/>
    </contour>
  </outline>
</glyph>
<glyph name="asciicircum" format="1">
  <advance width="1635"/>
  <unicode hex="005E"/>
  <outline>
    <contour>
      <point x="22" y="729" type="line"/>
      <point x="237" y="729" type="line"/>
      <point x="818" y="1300" type="line"/>
      <point x="1396" y="729" type="line"/>
      <point x="1611" y="729" type="line"/>
      <point x="907" y="1456" type="line"/>
      <point x="728" y="1456" type="line"/>
    </contour>
  </outline>
</glyph>
<glyph name="underscore" format="1">
  <advance width="1271"/>
  <unicode hex="005F"/>
  <outline>
    <contour>
      <point x="0" y="-266" type="line"/>
      <point x="363" y="-266" type="line"/>
      <point x="363" y="-100" type="line"/>
      <point x="0" y="-100" type="line"/>
    </contour>
    <contour>
      <point x="454" y="-266" type="line"/>
      <point x="817" y="-266" type="line"/>
      <point x="817" y="-100" type="line"/>
      <point x="454" y="-100" type="line"/>
    </contour>
    <contour>
      <point x="908" y="-266" type="line"/>
      <point x="1271" y="-266" type="line"/>
      <point x="1271" y="-100" type="line"/>
      <point x="908" y="-100" type="line"/>
    </contour>
  </outline>
</glyph>
<glyph name="a" format="1">
  <advance width="1445"/>
  <unicode hex="0061"/>
  <outline>
    <contour>
      <point x="91" y="301" type="qcurve" smooth="yes"/>
      <point x="91" y="144"/>
      <point x="354" y="-20"/>
      <point x="560" y="-20" type="qcurve" smooth="yes"/>
      <point x="743" y="-20"/>
      <point x="1000" y="80"/>
      <point x="1110" y="178" type="qcurve"/>
      <point x="1120" y="88"/>
      <point x="1149" y="14"/>
      <point x="1162" y="0" type="qcurve"/>
      <point x="1343" y="0" type="line"/>
      <point x="1343" y="30" type="line"/>
      <point x="1317" y="71"/>
      <point x="1287" y="199"/>
      <point x="1287" y="236" type="qcurve" smooth="yes"/>
      <point x="1287" y="720" type="line" smooth="yes"/>
      <point x="1287" y="909"/>
      <point x="994" y="1082"/>
      <point x="755" y="1082" type="qcurve" smooth="yes"/>
      <point x="499" y="1082"/>
      <point x="181" y="903"/>
      <point x="181" y="769" type="qcurve" smooth="yes"/>
      <point x="181" y="762" type="line"/>
      <point x="362" y="762" type="line"/>
      <point x="362" y="771" type="line" smooth="yes"/>
      <point x="362" y="831"/>
      <point x="540" y="933"/>
      <point x="741" y="933" type="qcurve" smooth="yes"/>
      <point x="944" y="933"/>
      <point x="1110" y="808"/>
      <point x="1110" y="722" type="qcurve" smooth="yes"/>
      <point x="1110" y="648" type="line"/>
      <point x="642" y="648" type="line" smooth="yes"/>
      <point x="405" y="648"/>
      <point x="91" y="473"/>
    </contour>
    <contour>
      <point x="274" y="326" type="qcurve" smooth="yes"/>
      <point x="274" y="421"/>
      <point x="510" y="516"/>
      <point x="721" y="516" type="qcurve" smooth="yes"/>
      <point x="1110" y="516" type="line"/>
      <point x="1110" y="386" type="line"/>
      <point x="1103" y="302"/>
      <point x="846" y="132"/>
      <point x="634" y="132" type="qcurve" smooth="yes"/>
      <point x="450" y="132"/>
      <point x="274" y="225"/>
    </contour>
    <contour>
      <point x="736.0" y="1052.0" type="move" name="top"/>
    </contour>
  </outline>
</glyph>
<glyph name="f" format="1">
  <advance width="789"/>
  <unicode hex="0066"/>
  <outline>
    <contour>
      <point x="278" y="0" type="line"/>
      <point x="461" y="0" type="line"/>
      <point x="461" y="974" type="line"/>
      <point x="461" y="1004" type="line"/>
      <point x="461" y="1127" type="line" smooth="yes"/>
      <point x="461" y="1273"/>
      <point x="611" y="1399"/>
      <point x="759" y="1399" type="qcurve" smooth="yes"/>
      <point x="814" y="1399"/>
      <point x="876" y="1389"/>
      <point x="893" y="1380" type="qcurve"/>
      <point x="901" y="1543" type="line"/>
      <point x="882" y="1547"/>
      <point x="795" y="1557"/>
      <point x="756" y="1557" type="qcurve" smooth="yes"/>
      <point x="540" y="1557"/>
      <point x="278" y="1355"/>
      <point x="278" y="1127" type="qcurve" smooth="yes"/>
    </contour>
    <contour>
      <point x="26" y="910" type="line"/>
      <point x="799" y="910" type="line"/>
      <point x="799" y="1052" type="line"/>
      <point x="402" y="1052" type="line"/>
      <point x="355" y="1052" type="line"/>
      <point x="26" y="1052" type="line"/>
    </contour>
  </outline>
</glyph>
<glyph name="k" format="1">
  <advance width="1372"/>
  <unicode hex="006B"/>
  <outline>
    <contour>
      <point x="1122" y="0" type="line"/>
      <point x="1388" y="0" type="line"/>
      <point x="661" y="651" type="line"/>
      <point x="516" y="545" type="line"/>
    </contour>
    <contour>
      <point x="146" y="0" type="line"/>
      <point x="332" y="0" type="line"/>
      <point x="332" y="342" type="line"/>
      <point x="1317" y="1052" type="line"/>
      <point x="1046" y="1052" type="line"/>
      <point x="505" y="665" type="line" smooth="yes"/>
      <point x="487" y="652"/>
      <point x="378" y="564"/>
      <point x="332" y="521" type="qcurve"/>
      <point x="332" y="1536" type="line"/>
      <point x="146" y="1536" type="line"/>
    </contour>
  </outline>
</glyph>
<glyph name="m" format="1">
  <advance width="2376"/>
  <unicode hex="006D"/>
  <outline>
    <contour>
      <point x="148" y="0" type="line"/>
      <point x="334" y="0" type="line"/>
      <point x="334" y="691" type="line"/>
      <point x="380" y="764"/>
      <point x="618" y="925"/>
      <point x="777" y="925" type="qcurve" smooth="yes"/>
      <point x="933" y="925"/>
      <point x="1100" y="771"/>
      <point x="1100" y="594" type="qcurve" smooth="yes"/>
      <point x="1100" y="0" type="line"/>
      <point x="1286" y="0" type="line"/>
      <point x="1286" y="715" type="line"/>
      <point x="1338" y="784"/>
      <point x="1556" y="925"/>
      <point x="1715" y="925" type="qcurve" smooth="yes"/>
      <point x="1870" y="925"/>
      <point x="2052" y="774"/>
      <point x="2052" y="595" type="qcurve" smooth="yes"/>
      <point x="2052" y="0" type="line"/>
      <point x="2238" y="0" type="line"/>
      <point x="2238" y="584" type="line" smooth="yes"/>
      <point x="2238" y="833"/>
      <point x="1986" y="1081"/>
      <point x="1758" y="1081" type="qcurve" smooth="yes"/>
      <point x="1590" y="1081"/>
      <point x="1320" y="957"/>
      <point x="1236" y="870" type="qcurve"/>
      <point x="1213" y="945"/>
      <point x="1009" y="1081"/>
      <point x="831" y="1081" type="qcurve" smooth="yes"/>
      <point x="674" y="1081"/>
      <point x="425" y="965"/>
      <point x="331" y="866" type="qcurve"/>
      <point x="329" y="866" type="line"/>
      <point x="317" y="1052" type="line"/>
      <point x="148" y="1052" type="line"/>
    </contour>
  </outline>
</glyph>
<glyph name="q" format="1">
  <advance width="1511"/>
  <unicode hex="0071"/>
  <outline>
    <contour>
      <point x="85" y="519" type="line" smooth="yes"/>
      <point x="85" y="264"/>
      <point x="434" y="-30"/>
      <point x="700" y="-30" type="qcurve" smooth="yes"/>
      <point x="861" y="-30"/>
      <point x="1098" y="75"/>
      <point x="1190" y="170" type="qcurve"/>
      <point x="1190" y="-416" type="line"/>
      <point x="1373" y="-416" type="line"/>
      <point x="1373" y="1052" type="line"/>
      <point x="1211" y="1052" type="line"/>
      <point x="1191" y="912" type="line"/>
      <point x="1125" y="983"/>
      <point x="884" y="1080"/>
      <point x="704" y="1080" type="qcurve" smooth="yes"/>
      <point x="413" y="1080"/>
      <point x="85" y="786"/>
      <point x="85" y="534" type="qcurve" smooth="yes"/>
    </contour>
    <contour>
      <point x="274" y="518" type="qcurve" smooth="yes"/>
      <point x="274" y="534" type="line" smooth="yes"/>
      <point x="274" y="699"/>
      <point x="500" y="928"/>
      <point x="710" y="928" type="qcurve" smooth="yes"/>
      <point x="889" y="928"/>
      <point x="1137" y="804"/>
      <point x="1190" y="713" type="qcurve"/>
      <point x="1190" y="351" type="line"/>
      <point x="1134" y="257"/>
      <point x="897" y="126"/>
      <point x="727" y="126" type="qcurve" smooth="yes"/>
      <point x="506" y="126"/>
      <point x="274" y="330"/>
    </contour>
  </outline>
</glyph>
<glyph name="s" format="1">
  <advance width="1324"/>
  <unicode hex="0073"/>
  <outline>
    <contour>
      <point x="80" y="312" type="line"/>
      <point x="80" y="309" type="line" smooth="yes"/>
      <point x="80" y="149"/>
      <point x="397" y="-40"/>
      <point x="670" y="-40" type="qcurve" smooth="yes"/>
      <point x="919" y="-40"/>
      <point x="1244" y="140"/>
      <point x="1244" y="289" type="qcurve" smooth="yes"/>
      <point x="1244" y="440"/>
      <point x="978" y="587"/>
      <point x="733" y="624" type="qcurve" smooth="yes"/>
      <point x="483" y="661"/>
      <point x="307" y="740"/>
      <point x="307" y="797" type="qcurve" smooth="yes"/>
      <point x="307" y="856"/>
      <point x="454" y="940"/>
      <point x="665" y="940" type="qcurve" smooth="yes"/>
      <point x="857" y="940"/>
      <point x="1020" y="842"/>
      <point x="1029" y="772" type="qcurve" smooth="yes"/>
      <point x="1031" y="757" type="line"/>
      <point x="1213" y="757" type="line"/>
      <point x="1213" y="760" type="line" smooth="yes"/>
      <point x="1213" y="906"/>
      <point x="909" y="1092"/>
      <point x="665" y="1092" type="qcurve" smooth="yes"/>
      <point x="420" y="1092"/>
      <point x="124" y="915"/>
      <point x="124" y="780" type="qcurve" smooth="yes"/>
      <point x="124" y="640"/>
      <point x="410" y="494"/>
      <point x="650" y="460" type="qcurve" smooth="yes"/>
      <point x="918" y="422"/>
      <point x="1062" y="344"/>
      <point x="1062" y="279" type="qcurve" smooth="yes"/>
      <point x="1062" y="211"/>
      <point x="870" y="111"/>
      <point x="673" y="111" type="qcurve" smooth="yes"/>
      <point x="487" y="111"/>
      <point x="263" y="223"/>
      <point x="263" y="307" type="qcurve" smooth="yes"/>
      <point x="263" y="312" type="line"/>
    </contour>
  </outline>
</glyph>
<glyph name="v" format="1">
  <advance width="1315"/>
  <unicode hex="0076"/>
  <outline>
    <contour>
      <point x="0" y="1052" type="line"/>
      <point x="593" y="0" type="line"/>
      <point x="726" y="0" type="line"/>
      <point x="1315" y="1052" type="line"/>
      <point x="1119" y="1052" type="line"/>
      <point x="737" y="350" type="line" smooth="yes"/>
      <point x="726" y="330"/>
      <point x="683" y="248"/>
      <point x="662" y="205" type="qcurve"/>
      <point x="654" y="205" type="line"/>
      <point x="633" y="248"/>
      <point x="591" y="330"/>
      <point x="580" y="351" type="qcurve" smooth="yes"/>
      <point x="201" y="1052" type="line"/>
    </contour>
  </outline>
</glyph>
<glyph name="braceleft" format="1">
  <advance width="835"/>
  <unicode hex="007B"/>
  <outline>
    <contour>
      <point x="348" y="345" type="qcurve" smooth="yes"/>
      <point x="281" y="133" type="line" smooth="yes"/>
      <point x="227" y="-34"/>
      <point x="592" y="-312"/>
      <point x="813" y="-312" type="qcurve"/>
      <point x="813" y="-166" type="line"/>
      <point x="637" y="-166"/>
      <point x="433" y="5"/>
      <point x="466" y="113" type="qcurve" smooth="yes"/>
      <point x="533" y="325" type="line" smooth="yes"/>
      <point x="564" y="422"/>
      <point x="468" y="557"/>
      <point x="343" y="579" type="qcurve"/>
      <point x="469" y="606"/>
      <point x="566" y="736"/>
      <point x="533" y="833" type="qcurve" smooth="yes"/>
      <point x="471" y="1020" type="line" smooth="yes"/>
      <point x="431" y="1143"/>
      <point x="637" y="1315"/>
      <point x="813" y="1315" type="qcurve"/>
      <point x="813" y="1460" type="line"/>
      <point x="592" y="1460"/>
      <point x="225" y="1182"/>
      <point x="281" y="1015" type="qcurve" smooth="yes"/>
      <point x="348" y="813" type="line" smooth="yes"/>
      <point x="378" y="719"/>
      <point x="204" y="645"/>
      <point x="64" y="645" type="qcurve"/>
      <point x="64" y="513" type="line"/>
      <point x="204" y="513"/>
      <point x="377" y="439"/>
    </contour>
  </outline>
</glyph>
<glyph name="exclamdown" format="1">
  <advance width="637"/>
  <unicode hex="00A1"/>
  <outline>
    <contour>
      <point x="240" y="766" type="line"/>
      <point x="221" y="-279" type="line"/>
      <point x="415" y="-279" type="line"/>
      <point x="397" y="766" type="line"/>
    </contour>
    <contour>
      <point x="189" y="1083" type="qcurve" smooth="yes"/>
      <point x="189" y="1026"/>
      <point x="260" y="965"/>
      <point x="317" y="965" type="qcurve" smooth="yes"/>
      <point x="373" y="965"/>
      <point x="448" y="1025"/>
      <point x="448" y="1082" type="qcurve" smooth="yes"/>
      <point x="448" y="1138"/>
      <point x="373" y="1199"/>
      <point x="317" y="1199" type="qcurve" smooth="yes"/>
      <point x="260" y="1199"/>
      <point x="189" y="1139"/>
    </contour>
  </outline>
</glyph>
<glyph name="yen" format="1">
  <advance width="1379"/>
  <unicode hex="00A5"/>
  <outline>
    <contour>
      <point x="69" y="582" type="line"/>
      <point x="1311" y="582" type="line"/>
      <point x="1311" y="727" type="line"/>
      <point x="69" y="727" type="line"/>
    </contour>
    <contour>
      <point x="69" y="272" type="line"/>
      <point x="1311" y="272" type="line"/>
      <point x="1311" y="416" type="line"/>
      <point x="69" y="416" type="line"/>
    </contour>
    <contour>
      <point x="16" y="1456" type="line"/>
      <point x="593" y="532" type="line"/>
      <point x="593" y="0" type="line"/>
      <point x="774" y="0" type="line"/>
      <point x="774" y="533" type="line"/>
      <point x="1363" y="1456" type="line"/>
      <point x="1132" y="1456" type="line"/>
      <point x="787" y="844" type="line" smooth="yes"/>
      <point x="767" y="809"/>
      <point x="731" y="752"/>
      <point x="718" y="726" type="qcurve"/>
      <point x="662" y="726" type="line"/>
      <point x="649" y="753"/>
      <point x="607" y="823"/>
      <point x="595" y="843" type="qcurve" smooth="yes"/>
      <point x="239" y="1456" type="line"/>
    </contour>
  </outline>
</glyph>
<glyph name="copyright" format="1">
  <advance width="2205"/>
  <unicode hex="00A9"/>
  <outline>
    <contour>
      <point x="233" y="699" type="qcurve" smooth="yes"/>
      <point x="233" y="952"/>
      <point x="706" y="1331"/>
      <point x="1103" y="1331" type="qcurve" smooth="yes"/>
      <point x="1483" y="1331"/>
      <point x="1970" y="941"/>
      <point x="1970" y="699" type="qcurve" smooth="yes"/>
      <point x="1970" y="431"/>
      <point x="1501" y="64"/>
      <point x="1103" y="64" type="qcurve" smooth="yes"/>
      <point x="722" y="64"/>
      <point x="233" y="456"/>
    </contour>
    <contour>
      <point x="94" y="699" type="qcurve" smooth="yes"/>
      <point x="94" y="356"/>
      <point x="716" y="-82"/>
      <point x="1103" y="-82" type="qcurve" smooth="yes"/>
      <point x="1504" y="-82"/>
      <point x="2111" y="349"/>
      <point x="2111" y="699" type="qcurve" smooth="yes"/>
      <point x="2111" y="1040"/>
      <point x="1491" y="1479"/>
      <point x="1103" y="1479" type="qcurve" smooth="yes"/>
      <point x="716" y="1479"/>
      <point x="94" y="1040"/>
    </contour>
    <contour>
      <point x="577" y="669" type="line" smooth="yes"/>
      <point x="577" y="475"/>
      <point x="895" y="252"/>
      <point x="1102" y="252" type="qcurve" smooth="yes"/>
      <point x="1307" y="252"/>
      <point x="1572" y="417"/>
      <point x="1577" y="532" type="qcurve" smooth="yes"/>
      <point x="1579" y="580" type="line"/>
      <point x="1432" y="580" type="line"/>
      <point x="1429" y="560" type="line" smooth="yes"/>
      <point x="1419" y="467"/>
      <point x="1258" y="402"/>
      <point x="1103" y="402" type="qcurve" smooth="yes"/>
      <point x="927" y="402"/>
      <point x="749" y="560"/>
      <point x="749" y="669" type="qcurve" smooth="yes"/>
      <point x="749" y="758" type="line" smooth="yes"/>
      <point x="749" y="884"/>
      <point x="930" y="1027"/>
      <point x="1106" y="1027" type="qcurve" smooth="yes"/>
      <point x="1280" y="1027"/>
      <point x="1434" y="936"/>
      <point x="1434" y="872" type="qcurve" smooth="yes"/>
      <point x="1434" y="832" type="line"/>
      <point x="1579" y="832" type="line"/>
      <point x="1577" y="887" type="line" smooth="yes"/>
      <point x="1574" y="1009"/>
      <point x="1314" y="1174"/>
      <point x="1098" y="1174" type="qcurve" smooth="yes"/>
      <point x="888" y="1174"/>
      <point x="577" y="954"/>
      <point x="577" y="757" type="qcurve" smooth="yes"/>
    </contour>
  </outline>
</glyph>
<glyph name="guillemetleft" format="1">
  <advance width="1499"/>
  <unicode hex="00AB"/>
  <outline>
    <contour>
      <point x="574" y="203" type="line"/>
      <point x="761" y="203" type="line"/>
      <point x="321" y="601" type="line"/>
      <point x="761" y="999" type="line"/>
      <point x="574" y="999" type="line"/>
      <point x="78" y="621" type="line"/>
      <point x="78" y="582" type="line"/>
    </contour>
    <contour>
      <point x="1252" y="203" type="line"/>
      <point x="1439" y="203" type="line"/>
      <point x="1000" y="601" type="line"/>
      <point x="1439" y="999" type="line"/>
      <point x="1252" y="999" type="line"/>
      <point x="756" y="621" type="line"/>
      <point x="756" y="582" type="line"/>
    </contour>
  </outline>
</glyph>
<glyph name="registered" format="1">
  <advance width="2205"/>
  <unicode hex="00AE"/>
  <outline>
    <contour>
      <point x="233" y="699" type="qcurve" smooth="yes"/>
      <point x="233" y="952"/>
      <point x="706" y="1331"/>
      <point x="1103" y="1331" type="qcurve" smooth="yes"/>
      <point x="1483" y="1331"/>
      <point x="1970" y="941"/>
      <point x="1970" y="699" type="qcurve" smooth="yes"/>
      <point x="1970" y="431"/>
      <point x="1501" y="64"/>
      <point x="1103" y="64" type="qcurve" smooth="yes"/>
      <point x="722" y="64"/>
      <point x="233" y="456"/>
    </contour>
    <contour>
      <point x="94" y="699" type="qcurve" smooth="yes"/>
      <point x="94" y="356"/>
      <point x="716" y="-82"/>
      <point x="1103" y="-82" type="qcurve" smooth="yes"/>
      <point x="1504" y="-82"/>
      <point x="2111" y="349"/>
      <point x="2111" y="699" type="qcurve" smooth="yes"/>
      <point x="2111" y="1040"/>
      <point x="1491" y="1478"/>
      <point x="1103" y="1478" type="qcurve" smooth="yes"/>
      <point x="716" y="1478"/>
      <point x="94" y="1040"/>
    </contour>
    <contour>
      <point x="1152" y="633" type="line"/>
      <point x="1421" y="286" type="line"/>
      <point x="1602" y="286" type="line"/>
      <point x="1295" y="678" type="line"/>
    </contour>
    <contour>
      <point x="1189" y="595" type="line"/>
      <point x="1279" y="629" type="line"/>
      <point x="1381" y="656"/>
      <point x="1513" y="781"/>
      <point x="1513" y="870" type="qcurve" smooth="yes"/>
      <point x="1513" y="1004"/>
      <point x="1289" y="1135"/>
      <point x="1114" y="1135" type="qcurve" smooth="yes"/>
      <point x="735" y="1135" type="line"/>
      <point x="735" y="287" type="line"/>
      <point x="882" y="287" type="line"/>
      <point x="882" y="595" type="line"/>
    </contour>
    <contour>
      <point x="882" y="1008" type="line"/>
      <point x="1093" y="1008" type="line" smooth="yes"/>
      <point x="1252" y="1009"/>
      <point x="1364" y="931"/>
      <point x="1364" y="864" type="qcurve" smooth="yes"/>
      <point x="1364" y="813"/>
      <point x="1251" y="724"/>
      <point x="1164" y="723" type="qcurve" smooth="yes"/>
      <point x="882" y="723" type="line"/>
    </contour>
  </outline>
</glyph>
<glyph name="degree" format="1">
  <advance width="1100"/>
  <unicode hex="00B0"/>
  <outline>
    <contour>
      <point x="128" y="1151" type="qcurve" smooth="yes"/>
      <point x="128" y="1005"/>
      <point x="385" y="829"/>
      <point x="555" y="829" type="qcurve" smooth="yes"/>
      <point x="720" y="829"/>
      <point x="972" y="1005"/>
      <point x="972" y="1151" type="qcurve" smooth="yes"/>
      <point x="972" y="1300"/>
      <point x="720" y="1477"/>
      <point x="555" y="1477" type="qcurve" smooth="yes"/>
      <point x="385" y="1477"/>
      <point x="128" y="1300"/>
    </contour>
    <contour>
      <point x="257" y="1152" type="qcurve" smooth="yes"/>
      <point x="257" y="1215"/>
      <point x="413" y="1322"/>
      <point x="553" y="1322" type="qcurve" smooth="yes"/>
      <point x="690" y="1322"/>
      <point x="844" y="1215"/>
      <point x="844" y="1152" type="qcurve" smooth="yes"/>
      <point x="844" y="1089"/>
      <point x="690" y="984"/>
      <point x="553" y="984" type="qcurve" smooth="yes"/>
      <point x="413" y="984"/>
      <point x="257" y="1089"/>
    </contour>
  </outline>
</glyph>
<glyph name="mu.math" format="1">
  <advance width="1460"/>
  <unicode hex="00B5"/>
  <outline>
    <contour>
      <point x="711" y="-21" type="qcurve" smooth="yes"/>
      <point x="812" y="-21"/>
      <point x="999" y="49"/>
      <point x="1136" y="186" type="qcurve"/>
      <point x="1155" y="0" type="line"/>
      <point x="1312" y="0" type="line"/>
      <point x="1312" y="1052" type="line"/>
      <point x="1130" y="1052" type="line"/>
      <point x="1130" y="298" type="line"/>
      <point x="1081" y="217"/>
      <point x="890" y="131"/>
      <point x="700" y="131" type="qcurve" smooth="yes"/>
      <point x="533" y="131"/>
      <point x="328" y="264"/>
      <point x="328" y="460" type="qcurve"/>
      <point x="328" y="1052" type="line"/>
      <point x="148" y="1052" type="line"/>
      <point x="148" y="-416" type="line"/>
      <point x="319" y="-416" type="line"/>
      <point x="319" y="100" type="line"/>
      <point x="460" y="14"/>
      <point x="635" y="-21"/>
    </contour>
  </outline>
</glyph>
<glyph name="questiondown" format="1">
  <advance width="1179"/>
  <unicode hex="00BF"/>
  <outline>
    <contour>
      <point x="557" y="766" type="line"/>
      <point x="557" y="764" type="line" smooth="yes"/>
      <point x="557" y="704"/>
      <point x="499" y="564"/>
      <point x="381" y="484" type="qcurve" smooth="yes"/>
      <point x="286" y="421"/>
      <point x="96" y="223"/>
      <point x="96" y="80" type="qcurve" smooth="yes"/>
      <point x="96" y="-102"/>
      <point x="371" y="-300"/>
      <point x="600" y="-300" type="qcurve" smooth="yes"/>
      <point x="829" y="-300"/>
      <point x="1119" y="-113"/>
      <point x="1119" y="59" type="qcurve" smooth="yes"/>
      <point x="1119" y="79" type="line"/>
      <point x="936" y="79" type="line"/>
      <point x="936" y="59" type="line" smooth="yes"/>
      <point x="936" y="-28"/>
      <point x="762" y="-138"/>
      <point x="600" y="-138" type="qcurve" smooth="yes"/>
      <point x="437" y="-138"/>
      <point x="280" y="-21"/>
      <point x="280" y="75" type="qcurve" smooth="yes"/>
      <point x="280" y="167"/>
      <point x="422" y="309"/>
      <point x="548" y="402" type="qcurve" smooth="yes"/>
      <point x="659" y="483"/>
      <point x="741" y="624"/>
      <point x="741" y="761" type="qcurve" smooth="yes"/>
      <point x="741" y="766" type="line"/>
    </contour>
    <contour>
      <point x="767" y="1082" type="qcurve" smooth="yes"/>
      <point x="767" y="1138"/>
      <point x="693" y="1198"/>
      <point x="639" y="1198" type="qcurve" smooth="yes"/>
      <point x="583" y="1198"/>
      <point x="509" y="1138"/>
      <point x="509" y="1082" type="qcurve" smooth="yes"/>
      <point x="509" y="1025"/>
      <point x="583" y="965"/>
      <point x="639" y="965" type="qcurve" smooth="yes"/>
      <point x="693" y="965"/>
      <point x="767" y="1025"/>
    </contour>
  </outline>
</glyph>
<glyph name="multiply" format="1">
  <advance width="1531"/>
  <unicode hex="00D7"/>
  <outline>
    <contour>
      <point x="137" y="325" type="line"/>
      <point x="272" y="231" type="line"/>
      <point x="1388" y="1002" type="line"/>
      <point x="1254" y="1097" type="line"/>
    </contour>
    <contour>
      <point x="140" y="1003" type="line"/>
      <point x="1257" y="232" type="line"/>
      <point x="1394" y="328" type="line"/>
      <point x="278" y="1100" type="line"/>
    </contour>
  </outline>
</glyph>
<glyph name="germandbls" format="1">
  <advance width="1597"/>
  <unicode hex="00DF"/>
  <outline>
    <contour>
      <point x="320" y="1112" type="line" smooth="yes"/>
      <point x="320" y="1251"/>
      <point x="504" y="1403"/>
      <point x="689" y="1403" type="qcurve" smooth="yes"/>
      <point x="872" y="1403"/>
      <point x="1016" y="1272"/>
      <point x="1016" y="1201" type="qcurve" smooth="yes"/>
      <point x="1016" y="1163"/>
      <point x="959" y="1074"/>
      <point x="922" y="1035" type="qcurve" smooth="yes"/>
      <point x="882" y="991"/>
      <point x="813" y="900"/>
      <point x="813" y="822" type="qcurve" smooth="yes"/>
      <point x="813" y="719"/>
      <point x="942" y="600"/>
      <point x="1004" y="564" type="qcurve" smooth="yes"/>
      <point x="1130" y="492"/>
      <point x="1327" y="377"/>
      <point x="1327" y="308" type="qcurve" smooth="yes"/>
      <point x="1327" y="244"/>
      <point x="1162" y="131"/>
      <point x="959" y="131" type="qcurve" smooth="yes"/>
      <point x="827" y="131"/>
      <point x="626" y="186"/>
      <point x="637" y="181" type="qcurve"/>
      <point x="584" y="49" type="line"/>
      <point x="634" y="24"/>
      <point x="897" y="-20"/>
      <point x="987" y="-20" type="qcurve" smooth="yes"/>
      <point x="1202" y="-20"/>
      <point x="1509" y="140"/>
      <point x="1509" y="317" type="qcurve" smooth="yes"/>
      <point x="1509" y="447"/>
      <point x="1286" y="595"/>
      <point x="1173" y="659" type="qcurve" smooth="yes"/>
      <point x="1105" y="698"/>
      <point x="994" y="778"/>
      <point x="994" y="820" type="qcurve" smooth="yes"/>
      <point x="994" y="854"/>
      <point x="1049" y="932"/>
      <point x="1082" y="969" type="qcurve" smooth="yes"/>
      <point x="1119" y="1011"/>
      <point x="1183" y="1116"/>
      <point x="1183" y="1217" type="qcurve" smooth="yes"/>
      <point x="1183" y="1375"/>
      <point x="911" y="1554"/>
      <point x="674" y="1554" type="qcurve" smooth="yes"/>
      <point x="448" y="1554"/>
      <point x="140" y="1339"/>
      <point x="140" y="1112" type="qcurve" smooth="yes"/>
      <point x="140" y="0" type="line"/>
      <point x="320" y="0" type="line"/>
    </contour>
  </outline>
</glyph>
<glyph name="eth" format="1">
  <advance width="1513"/>
  <unicode hex="00F0"/>
  <outline>
    <contour>
      <point x="1435" y="1423" type="line"/>
      <point x="1326" y="1531" type="line"/>
      <point x="593" y="1195" type="line"/>
      <point x="702" y="1085" type="line"/>
    </contour>
    <contour>
      <point x="1214" y="635" type="line"/>
      <point x="1214" y="535" type="line" smooth="yes"/>
      <point x="1214" y="375"/>
      <point x="982" y="132"/>
      <point x="759" y="132" type="qcurve" smooth="yes"/>
      <point x="517" y="132"/>
      <point x="279" y="356"/>
      <point x="279" y="468" type="qcurve" smooth="yes"/>
      <point x="279" y="622"/>
      <point x="528" y="826"/>
      <point x="776" y="826" type="qcurve" smooth="yes"/>
      <point x="999" y="826"/>
      <point x="1215" y="664"/>
      <point x="1219" y="598" type="qcurve"/>
      <point x="1256" y="609" type="line"/>
      <point x="1256" y="757"/>
      <point x="928" y="978"/>
      <point x="711" y="978" type="qcurve" smooth="yes"/>
      <point x="459" y="978"/>
      <point x="96" y="708"/>
      <point x="96" y="468" type="qcurve" smooth="yes"/>
      <point x="96" y="256"/>
      <point x="476" y="-20"/>
      <point x="753" y="-20" type="qcurve" smooth="yes"/>
      <point x="1054" y="-20"/>
      <point x="1397" y="301"/>
      <point x="1397" y="684" type="qcurve" smooth="yes"/>
      <point x="1397" y="867" type="line" smooth="yes"/>
      <point x="1397" y="1180"/>
      <point x="1060" y="1557"/>
      <point x="770" y="1557" type="qcurve" smooth="yes"/>
      <point x="563" y="1557"/>
      <point x="244" y="1450"/>
      <point x="163" y="1376" type="qcurve"/>
      <point x="274" y="1268" type="line"/>
      <point x="292" y="1286"/>
      <point x="543" y="1405"/>
      <point x="744" y="1405" type="qcurve" smooth="yes"/>
      <point x="947" y="1405"/>
      <point x="1214" y="1155"/>
      <point x="1214" y="954" type="qcurve" smooth="yes"/>
    </contour>
  </outline>
</glyph>
<glyph name="quotedblbase" format="1">
  <advance width="1077"/>
  <unicode hex="201E"/>
  <outline>
    <contour>
      <point x="95" y="-191" type="qcurve"/>
      <point x="227" y="-248" type="line"/>
      <point x="315" y="-200"/>
      <point x="443" y="-5"/>
      <point x="443" y="99" type="qcurve" smooth="yes"/>
      <point x="443" y="220" type="line"/>
      <point x="266" y="220" type="line"/>
      <point x="266" y="96" type="line" smooth="yes"/>
      <point x="266" y="29"/>
      <point x="171" y="-117"/>
    </contour>
    <contour>
      <point x="685" y="-191" type="qcurve"/>
      <point x="817" y="-248" type="line"/>
      <point x="905" y="-200"/>
      <point x="1033" y="-5"/>
      <point x="1033" y="99" type="qcurve" smooth="yes"/>
      <point x="1033" y="220" type="line"/>
      <point x="856" y="220" type="line"/>
      <point x="856" y="96" type="line" smooth="yes"/>
      <point x="856" y="29"/>
      <point x="761" y="-117"/>
    </contour>
  </outline>
</glyph>
<glyph name="dagger" format="1">
  <advance width="1402"/>
  <unicode hex="2020"/>
  <outline>
    <contour>
      <point x="1332" y="1120" type="line"/>
      <point x="698" y="1101" type="line"/>
      <point x="70" y="1120" type="line"/>
      <point x="70" y="931" type="line"/>
      <point x="701" y="950" type="line"/>
      <point x="1332" y="931" type="line"/>
    </contour>
    <contour>
      <point x="730" y="-224" type="line"/>
      <point x="797" y="523" type="line"/>
      <point x="757" y="1020" type="line"/>
      <point x="811" y="1516" type="line"/>
      <point x="590" y="1516" type="line"/>
      <point x="644" y="1020" type="line"/>
      <point x="604" y="523" type="line"/>
      <point x="669" y="-225" type="line"/>
    </contour>
  </outline>
</glyph>
<glyph name="trademark" format="1">
  <advance width="2175"/>
  <unicode hex="2122"/>
  <outline>
    <contour>
      <point x="1953" y="822" type="line"/>
      <point x="2065" y="822" type="line"/>
      <point x="2065" y="1456" type="line"/>
      <point x="1862" y="1456" type="line"/>
      <point x="1544" y="922" type="line"/>
      <point x="1233" y="1456" type="line"/>
      <point x="1019" y="1456" type="line"/>
      <point x="1019" y="821" type="line"/>
      <point x="1117" y="821" type="line"/>
      <point x="1117" y="1432" type="line"/>
      <point x="1467" y="821" type="line"/>
      <point x="1602" y="821" type="line"/>
      <point x="1953" y="1434" type="line"/>
    </contour>
    <contour>
      <point x="819" y="1456" type="line"/>
      <point x="68" y="1456" type="line"/>
      <point x="68" y="1310" type="line"/>
      <point x="379" y="1310" type="line"/>
      <point x="379" y="821" type="line"/>
      <point x="521" y="821" type="line"/>
      <point x="521" y="1310" type="line"/>
      <point x="819" y="1310" type="line"/>
    </contour>
  </outline>
</glyph>
<glyph name="fi" format="1">
  <advance width="1489"/>
  <unicode hex="FB01"/>
  <outline>
    <contour>
      <point x="461" y="0" type="line"/>
      <point x="461" y="1176" type="line" smooth="yes"/>
      <point x="461" y="1273"/>
      <point x="628" y="1396"/>
      <point x="836" y="1396" type="qcurve" smooth="yes"/>
      <point x="972" y="1396"/>
      <point x="1151" y="1358"/>
      <point x="1153" y="1357" type="qcurve"/>
      <point x="1194" y="1499" type="line"/>
      <point x="1098" y="1522"/>
      <point x="894" y="1557"/>
      <point x="817" y="1557" type="qcurve" smooth="yes"/>
      <point x="579" y="1557"/>
      <point x="278" y="1369"/>
      <point x="278" y="1176" type="qcurve" smooth="yes"/>
      <point x="278" y="0" type="line"/>
    </contour>
    <contour>
      <point x="874" y="1052" type="line"/>
      <point x="26" y="1052" type="line"/>
      <point x="26" y="910" type="line"/>
      <point x="874" y="910" type="line"/>
    </contour>
    <contour>
      <point x="1332" y="1052" type="line"/>
      <point x="1148" y="1052" type="line"/>
      <point x="1148" y="0" type="line"/>
      <point x="1332" y="0" type="line"/>
    </contour>
  </outline>
</glyph>
<glyph name="f_f_l" format="1">
  <advance width="2401"/>
  <unicode hex="FB04"/>
  <outline>
    <contour>
      <point x="2063" y="0" type="line"/>
      <point x="2245" y="0" type="line"/>
      <point x="2245" y="1496" type="line"/>
      <point x="2063" y="1496" type="line"/>
    </contour>
    <contour>
      <point x="1332" y="0" type="line"/>
      <point x="1332" y="1176" type="line" smooth="yes"/>
      <point x="1332" y="1273"/>
      <point x="1498" y="1396"/>
      <point x="1706" y="1396" type="qcurve" smooth="yes"/>
      <point x="1842" y="1396"/>
      <point x="2021" y="1358"/>
      <point x="2023" y="1357" type="qcurve"/>
      <point x="2064" y="1499" type="line"/>
      <point x="1968" y="1522"/>
      <point x="1764" y="1557"/>
      <point x="1687" y="1557" type="qcurve" smooth="yes"/>
      <point x="1449" y="1557"/>
      <point x="1148" y="1369"/>
      <point x="1148" y="1176" type="qcurve" smooth="yes"/>
      <point x="1148" y="0" type="line"/>
    </contour>
    <contour>
      <point x="1745" y="1052" type="line"/>
      <point x="896" y="1052" type="line"/>
      <point x="896" y="910" type="line"/>
      <point x="1745" y="910" type="line"/>
    </contour>
    <contour>
      <point x="461" y="0" type="line"/>
      <point x="461" y="1176" type="line" smooth="yes"/>
      <point x="461" y="1273"/>
      <point x="628" y="1396"/>
      <point x="836" y="1396" type="qcurve" smooth="yes"/>
      <point x="971" y="1396"/>
      <point x="1085" y="1379"/>
      <point x="1094" y="1376" type="qcurve"/>
      <point x="1135" y="1514" type="line"/>
      <point x="1058" y="1533"/>
      <point x="894" y="1557"/>
      <point x="817" y="1557" type="qcurve" smooth="yes"/>
      <point x="579" y="1557"/>
      <point x="278" y="1369"/>
      <point x="278" y="1176" type="qcurve" smooth="yes"/>
      <point x="278" y="0" type="line"/>
    </contour>
    <contour>
      <point x="874" y="1052" type="line"/>
      <point x="26" y="1052" type="line"/>
      <point x="26" y="910" type="line"/>
      <point x="874" y="910" type="line"/>
    </contour>
  </outline>
</glyph>
<glyph name="five.pnum" format="1">
  <advance width="1299"/>
  <outline>
    <contour>
      <point x="40" y="373" type="line"/>
      <point x="40" y="371" type="line" smooth="yes"/>
      <point x="40" y="165"/>
      <point x="422" y="-30"/>
      <point x="663" y="-30" type="qcurve" smooth="yes"/>
      <point x="923" y="-30"/>
      <point x="1249" y="246"/>
      <point x="1249" y="464" type="qcurve" smooth="yes"/>
      <point x="1249" y="682"/>
      <point x="939" y="952"/>
      <point x="679" y="952" type="qcurve" smooth="yes"/>
      <point x="581" y="952"/>
      <point x="392" y="901"/>
      <point x="285" y="847" type="qcurve"/>
      <point x="348" y="1285" type="line"/>
      <point x="1154" y="1285" type="line"/>
      <point x="1154" y="1456" type="line"/>
      <point x="203" y="1456" type="line"/>
      <point x="105" y="728" type="line"/>
      <point x="242" y="679" type="line"/>
      <point x="309" y="728"/>
      <point x="481" y="788"/>
      <point x="649" y="788" type="qcurve" smooth="yes"/>
      <point x="851" y="788"/>
      <point x="1068" y="607"/>
      <point x="1068" y="462" type="qcurve" smooth="yes"/>
      <point x="1068" y="313"/>
      <point x="860" y="122"/>
      <point x="641" y="122" type="qcurve" smooth="yes"/>
      <point x="452" y="122"/>
      <point x="222" y="255"/>
      <point x="222" y="371" type="qcurve" smooth="yes"/>
      <point x="222" y="373" type="line"/>
    </contour>
  </outline>
</glyph>
<glyph name="nine.pnum" format="1">
  <advance width="1358"/>
  <outline>
    <contour>
      <point x="23.0" y="995.0" type="qcurve" smooth="yes"/>
      <point x="23.0" y="800.0"/>
      <point x="324.0" y="535.0"/>
      <point x="591.0" y="535.0" type="qcurve" smooth="yes"/>
      <point x="766.0" y="535.0"/>
      <point x="1041.0" y="671.0"/>
      <point x="1116.0" y="774.0" type="qcurve"/>
      <point x="1143" y="967" type="line"/>
      <point x="1083" y="853"/>
      <point x="827" y="689"/>
      <point x="631" y="689" type="qcurve" smooth="yes"/>
      <point x="428" y="689"/>
      <point x="207.0" y="869.0"/>
      <point x="207.0" y="1004.0" type="qcurve" smooth="yes"/>
      <point x="207.0" y="1140.0"/>
      <point x="423.0" y="1326.0"/>
      <point x="637.0" y="1326.0" type="qcurve" smooth="yes"/>
      <point x="856.0" y="1326.0"/>
      <point x="1105.0" y="1091.0"/>
      <point x="1105.0" y="845.0" type="qcurve" smooth="yes"/>
      <point x="1105.0" y="796.0" type="line" smooth="yes"/>
      <point x="1105.0" y="414.0"/>
      <point x="653.0" y="127.0"/>
      <point x="308.0" y="127.0" type="qcurve" smooth="yes"/>
      <point x="301.0" y="127.0" type="line"/>
      <point x="301" y="-30" type="line"/>
      <point x="310" y="-30" type="line" smooth="yes"/>
      <point x="779" y="-30"/>
      <point x="1290.0" y="403.0"/>
      <point x="1290.0" y="792.0" type="qcurve" smooth="yes"/>
      <point x="1290.0" y="821.0" type="line" smooth="yes"/>
      <point x="1290.0" y="1198.0"/>
      <point x="881.0" y="1478.0"/>
      <point x="631.0" y="1478.0" type="qcurve" smooth="yes"/>
      <point x="364.0" y="1478.0"/>
      <point x="23.0" y="1200.0"/>
    </contour>
  </outline>
</glyph>
<glyph name="three.pnum" format="1">
  <advance width="1315"/>
  <outline>
    <contour>
      <point x="39" y="393" type="line"/>
      <point x="39" y="386" type="line" smooth="yes"/>
      <point x="39" y="186"/>
      <point x="392" y="-30"/>
      <point x="644" y="-30" type="qcurve" smooth="yes"/>
      <point x="907" y="-30"/>
      <point x="1259" y="191"/>
      <point x="1259" y="404" type="qcurve" smooth="yes"/>
      <point x="1259" y="570"/>
      <point x="1028" y="741"/>
      <point x="887" y="766" type="qcurve"/>
      <point x="1041" y="814"/>
      <point x="1168" y="992"/>
      <point x="1168" y="1101" type="qcurve" smooth="yes"/>
      <point x="1168" y="1285"/>
      <point x="860" y="1479"/>
      <point x="627" y="1479" type="qcurve" smooth="yes"/>
      <point x="404" y="1479"/>
      <point x="101" y="1260"/>
      <point x="101" y="1094" type="qcurve" smooth="yes"/>
      <point x="101" y="1085" type="line"/>
      <point x="276" y="1085" type="line"/>
      <point x="276" y="1091" type="line" smooth="yes"/>
      <point x="276" y="1191"/>
      <point x="452" y="1324"/>
      <point x="627" y="1324" type="qcurve" smooth="yes"/>
      <point x="809" y="1324"/>
      <point x="989" y="1193"/>
      <point x="989" y="1078" type="qcurve" smooth="yes"/>
      <point x="989" y="964"/>
      <point x="795" y="836"/>
      <point x="577" y="836" type="qcurve" smooth="yes"/>
      <point x="466" y="836" type="line"/>
      <point x="466" y="681" type="line"/>
      <point x="599" y="681" type="line" smooth="yes"/>
      <point x="822" y="681"/>
      <point x="1075" y="538"/>
      <point x="1075" y="400" type="qcurve" smooth="yes"/>
      <point x="1075" y="276"/>
      <point x="861" y="125"/>
      <point x="644" y="125" type="qcurve" smooth="yes"/>
      <point x="442" y="125"/>
      <point x="215" y="270"/>
      <point x="215" y="387" type="qcurve" smooth="yes"/>
      <point x="215" y="393" type="line"/>
    </contour>
  </outline>
</glyph>
<glyph name="zero.pnum" format="1">
  <advance width="1413"/>
  <outline>
    <contour>
      <point x="112" y="440" type="line" smooth="yes"/>
      <point x="112" y="213"/>
      <point x="442" y="-30"/>
      <point x="708" y="-30" type="qcurve" smooth="yes"/>
      <point x="970" y="-30"/>
      <point x="1301" y="213"/>
      <point x="1301" y="440" type="qcurve" smooth="yes"/>
      <point x="1301" y="1007" type="line" smooth="yes"/>
      <point x="1301" y="1234"/>
      <point x="970" y="1479"/>
      <point x="705" y="1479" type="qcurve" smooth="yes"/>
      <point x="442" y="1479"/>
      <point x="112" y="1234"/>
      <point x="112" y="1007" type="qcurve" smooth="yes"/>
    </contour>
    <contour>
      <point x="306" y="428" type="qcurve" smooth="yes"/>
      <point x="306" y="1019" type="line" smooth="yes"/>
      <point x="306" y="1115"/>
      <point x="468" y="1323"/>
      <point x="705" y="1323" type="qcurve" smooth="yes"/>
      <point x="942" y="1323"/>
      <point x="1106" y="1121"/>
      <point x="1106" y="1019" type="qcurve" smooth="yes"/>
      <point x="1106" y="428" type="line" smooth="yes"/>
      <point x="1106" y="332"/>
      <point x="944" y="124"/>
      <point x="708" y="124" type="qcurve" smooth="yes"/>
      <point x="471" y="124"/>
      <point x="306" y="326"/>
    </contour>
  </outline>
</glyph>
